<?xml version="1.0" encoding="UTF-8"?>
<svg id="Layer_1" xmlns="http://www.w3.org/2000/svg" xmlns:xlink="http://www.w3.org/1999/xlink" version="1.1" viewBox="0 0 499.2 518.4">
  <!-- Generator: Adobe Illustrator 29.2.1, SVG Export Plug-In . SVG Version: 2.1.0 Build 116)  -->
  <defs>
    <style>
      .st0 {
        font-size: 13px;
      }

      .st0, .st1, .st2, .st3, .st4, .st5, .st6, .st7, .st8, .st9, .st10, .st11, .st12, .st13, .st14 {
        stroke: #350700;
        stroke-miterlimit: 10;
        stroke-width: .2px;
      }

      .st0, .st3, .st4, .st5, .st6, .st9, .st11, .st12, .st14 {
        font-family: ChalkboardSE-Bold, 'Chalkboard SE';
        font-weight: 700;
      }

      .st0, .st3, .st10, .st12, .st14 {
        fill: #ebf6ff;
      }

      .st1 {
        fill: #f05c3b;
      }

      .st2 {
        fill: #c80813;
      }

      .st3 {
        font-size: 10px;
      }

      .st4, .st5, .st6, .st11 {
        font-size: 20px;
      }

      .st4, .st8 {
        fill: #fed439;
      }

      .st5 {
        fill: #c9343c;
      }

      .st6 {
        fill: #f06748;
      }

      .st7 {
        fill: #1a9993;
      }

      .st15 {
        fill: #009ddc;
      }

      .st9 {
        fill: #fff;
        font-size: 23px;
      }

      .st11, .st13 {
        fill: #197ec0;
      }

      .st12 {
        font-size: 9px;
      }

      .st14 {
        font-size: 12px;
      }
    </style>
  </defs>
  <rect class="st15" width="499.2" height="518.4"/>
  <path class="st8" d="M84.2,132.1h70c3.3,0,5.9-2.7,5.9-5.9v-16c0-3.3-2.7-5.9-5.9-5.9h-70v27.8Z"/>
  <path class="st10" d="M84.2,163h43.9c3.3,0,5.9-2.7,5.9-5.9v-16c0-3.3-2.7-5.9-5.9-5.9h-43.9v27.8Z"/>
  <path class="st13" d="M84.2,193.9h37.1c3.3,0,5.9-2.7,5.9-5.9v-16c0-3.3-2.7-5.9-5.9-5.9h-37.1v27.8Z"/>
  <path class="st10" d="M84.2,224.9h33.7c3.3,0,5.9-2.7,5.9-5.9v-16c0-3.3-2.7-5.9-5.9-5.9h-33.7v27.8Z"/>
  <path class="st10" d="M84.2,255.8h20.1c3.3,0,5.9-2.7,5.9-5.9v-16c0-3.3-2.7-5.9-5.9-5.9h-20.1v27.8Z"/>
  <path class="st8" d="M84.2,325.3h86.4c3.3,0,5.9-2.7,5.9-5.9v-16c0-3.3-2.7-5.9-5.9-5.9h-86.4v27.8Z"/>
  <path class="st2" d="M84.2,356.2h53c3.3,0,5.9-2.7,5.9-5.9v-16c0-3.3-2.7-5.9-5.9-5.9h-53v27.8Z"/>
  <path class="st13" d="M84.2,387.1h47.9c3.3,0,5.9-2.7,5.9-5.9v-16c0-3.3-2.7-5.9-5.9-5.9h-47.9v27.8Z"/>
  <path class="st10" d="M84.2,418h23.5c3.3,0,5.9-2.7,5.9-5.9v-16c0-3.3-2.7-5.9-5.9-5.9h-23.5v27.8Z"/>
  <path class="st10" d="M84.2,448.9h16.2c3.3,0,5.9-2.7,5.9-5.9v-16c0-3.3-2.7-5.9-5.9-5.9h-16.2v27.8Z"/>
  <path class="st13" d="M289.7,132.1h150c2.6,0,4.7-2.1,4.7-4.7v-18.4c0-2.6-2.1-4.7-4.7-4.7h-150v27.8Z"/>
  <path class="st10" d="M289.7,163h70.7c2.6,0,4.7-2.1,4.7-4.7v-18.4c0-2.6-2.1-4.7-4.7-4.7h-70.7v27.8Z"/>
  <path class="st10" d="M289.7,193.9h65c2.6,0,4.7-2.1,4.7-4.7v-18.4c0-2.6-2.1-4.7-4.7-4.7h-65v27.8Z"/>
  <path class="st10" d="M289.7,224.9h61.6c2.6,0,4.7-2.1,4.7-4.7v-18.4c0-2.6-2.1-4.7-4.7-4.7h-61.6v27.8Z"/>
  <path class="st10" d="M289.7,255.8h60.5c2.6,0,4.7-2.1,4.7-4.7v-18.4c0-2.6-2.1-4.7-4.7-4.7h-60.5v27.8Z"/>
  <path class="st8" d="M289.7,325.3h94.9c3.3,0,5.9-2.7,5.9-5.9v-16c0-3.3-2.7-5.9-5.9-5.9h-94.9v27.8Z"/>
  <path class="st8" d="M289.7,356.2h73.4c3.3,0,5.9-2.7,5.9-5.9v-16c0-3.3-2.7-5.9-5.9-5.9h-73.4v27.8Z"/>
  <path class="st7" d="M289.7,387.1h34.3c3.3,0,5.9-2.7,5.9-5.9v-16c0-3.3-2.7-5.9-5.9-5.9h-34.3v27.8Z"/>
  <path class="st2" d="M289.7,418h30.3c3.3,0,5.9-2.7,5.9-5.9v-16c0-3.3-2.7-5.9-5.9-5.9h-30.3v27.8Z"/>
  <path class="st1" d="M289.7,448.9h29.2c3.3,0,5.9-2.7,5.9-5.9v-16c0-3.3-2.7-5.9-5.9-5.9h-29.2v27.8Z"/>
  <text class="st9" transform="translate(33.7 45.1)"><tspan x="0" y="0">THE SIMPSONS’ MOST SPOKEN WORDS</tspan></text>
  <text class="st5" transform="translate(84.2 93.9)"><tspan x="0" y="0">BART</tspan></text>
  <text class="st4" transform="translate(289.7 93)"><tspan x="0" y="0">HOMER</tspan></text>
  <text class="st6" transform="translate(84.2 290.5)"><tspan x="0" y="0">LISA</tspan></text>
  <text class="st11" transform="translate(289.7 289.5)"><tspan x="0" y="0">MARGE</tspan></text>
  <text class="st14" transform="translate(46.6 120.7)"><tspan x="0" y="0">Dad</tspan></text>
  <text class="st14" transform="translate(47.3 151.6)"><tspan x="0" y="0">Hey</tspan></text>
  <text class="st14" transform="translate(41.5 182.6)"><tspan x="0" y="0">Mom</tspan></text>
  <text class="st14" transform="translate(33.4 213.5)"><tspan x="0" y="0">Gonna</tspan></text>
  <text class="st14" transform="translate(41.7 244.4)"><tspan x="0" y="0">Yeah</tspan></text>
  <text class="st14" transform="translate(239.8 120.7)"><tspan x="0" y="0">Marge</tspan></text>
  <text class="st14" transform="translate(253 152.9)"><tspan x="0" y="0">Hey</tspan></text>
  <text class="st14" transform="translate(246.8 183.3)"><tspan x="0" y="0">Yeah</tspan></text>
  <text class="st14" transform="translate(258.3 213.6)"><tspan x="0" y="0">Uh</tspan></text>
  <text class="st14" transform="translate(253 244.4)"><tspan x="0" y="0">Boy</tspan></text>
  <text class="st14" transform="translate(240.4 313.9)"><tspan x="0" y="0">Homer</tspan></text>
  <text class="st14" transform="translate(243.3 344.8)"><tspan x="0" y="0">Homie</tspan></text>
  <text class="st14" transform="translate(254.4 375.7)"><tspan x="0" y="0">Kids</tspan></text>
  <text class="st14" transform="translate(252.2 406.6)"><tspan x="0" y="0">Bart</tspan></text>
  <text class="st14" transform="translate(255.5 437.6)"><tspan x="0" y="0">Lisa</tspan></text>
  <text class="st14" transform="translate(49.3 313.9)"><tspan x="0" y="0">Dad</tspan></text>
  <text class="st14" transform="translate(45.8 344.8)"><tspan x="0" y="0">Bart</tspan></text>
  <text class="st14" transform="translate(44.2 375.7)"><tspan x="0" y="0">Mom</tspan></text>
  <text class="st14" transform="translate(36.1 406.6)"><tspan x="0" y="0">Gonna</tspan></text>
  <text class="st14" transform="translate(45.4 437.6)"><tspan x="0" y="0">Love</tspan></text>
  <text class="st14" transform="translate(80.8 472.4)"><tspan x="0" y="0">0</tspan></text>
  <text class="st14" transform="translate(130.7 472.4)"><tspan x="0" y="0">100</tspan></text>
  <text class="st14" transform="translate(187.1 472.4)"><tspan x="0" y="0">200</tspan></text>
  <text class="st0" transform="translate(219.7 497.1)"><tspan x="0" y="0">Frequency</tspan></text>
  <text class="st14" transform="translate(286.6 472.4)"><tspan x="0" y="0">0</tspan></text>
  <text class="st14" transform="translate(336.5 472.4)"><tspan x="0" y="0">100</tspan></text>
  <text class="st14" transform="translate(392.9 472.4)"><tspan x="0" y="0">200</tspan></text>
  <text class="st3" transform="translate(298.4 511.2)"><tspan x="0" y="0">source: The Simpsons Dataset, kaggle.com</tspan></text>
  <text class="st12" transform="translate(30.5 511)"><tspan x="0" y="0">@jessimoore.bsky.social</tspan></text>
  <path class="st10" d="M14.3,501.3c1.5,1.1,3.1,3.4,3.7,4.7v3.5c-.3.9-1.5,4.5-4.3,1.6-1.5-1.5-.8-3,1.9-3.5-1.5.3-3.2-.2-3.7-1.8-.1-.5-.4-3.5-.4-3.9,0-2,1.8-1.4,2.8-.6ZM21.7,501.3c-1.5,1.1-3.1,3.4-3.7,4.7v3.5c.3.9,1.5,4.5,4.3,1.6,1.5-1.5.8-3-1.9-3.5,1.5.3,3.2-.2,3.7-1.8.1-.5.4-3.5.4-3.9,0-2-1.8-1.4-2.8-.6h0Z"/>
</svg>